<svg id="Layer_1" data-name="Layer 1" xmlns="http://www.w3.org/2000/svg" viewBox="0 0 560 560"><title>Artboard 1</title><path d="M183.36,95.16c-24.8,5.64-42.05,11-59.68,13.17-16.34,2-25.64-5-21.71-24.1C112.11,35,154.33,22.1,192.33,7.75c30.88-11.67,64.86-13.2,89.26,17.06,16.38,20.3,34,40.7,45.17,63.9,24.51,51,45.05,103.8,67.62,155.69,20.5,47.12,41.1,94.21,62.53,140.91,9.4,20.49,23,33.91,49.33,25.07,6.9-2.31,21.89,3.13,24.7,9,3.73,7.84,2.91,22.89-2.52,29.15-21.23,24.49-44.39,47.43-68,69.66-52.39,49.25-61.69,48.06-94.83-16.47-15.58-30.32-26.5-63-39.69-94.58-2.39-5.73-4.45-14.85-8.56-16.09-28.5-8.56-32.32-29.55-24.24-60.74-14.89,6.31-24.57,7.66-30.06,13.19-33.55,33.8-66.85,67.9-98.85,103.16-29.66,32.68-56.38,68.1-87.05,99.74-8.83,9.11-26.85,9.29-40.65,13.57-2.68-13.22-9.48-27.2-7.23-39.52,5.65-30.86,12.94-61.9,24-91.18C78.37,363,105.82,297.47,133,231.93c13.43-32.32,29.1-63.71,42.39-96.09C179.93,124.88,180.21,112.18,183.36,95.16Zm39,100.48c-32.66,31.23-71,141-56.13,162.18,9.89-11.63,19.4-23.43,29.59-34.61,10.9-12,22.37-23.4,33.71-34.94C263.52,253.67,261.53,227.6,222.35,195.64Z"/></svg>